# xmcd
#
# Track frame offsets: 
#        150
#        16267
#        33002
#        48500
#        64275
#        81502
#        99305
#        117625
#        133730
#        152585
#        171337
#        187445
#        202007
#        215257
#        231200
#        249895
#        265635
#
# Disc length: 3835 seconds
#
# Revision: 5
# Processed by: cddbd v1.5.2PL0 Copyright (c) Steve Scherf et al.
# Submitted via: ExactAudioCopy v1.0b4
#
DISCID=f10ef911
DTITLE=Limão com Mel - Toma Conta de Mim
DYEAR=2003
DGENRE=Forró
TTITLE0=Toma Conta de Mim
TTITLE1=Veneno
TTITLE2=Luz, Câmera, Ação
TTITLE3=Deixe o Tempo Passar
TTITLE4=Caso Encerrado
TTITLE5=Depois Que Você Matar Meu Coração
TTITLE6=Não Quero Mais
TTITLE7=Amor ao Vento
TTITLE8=Só Você
TTITLE9=Coração na Mão
TTITLE10=Mentira Que Virou Paixão
TTITLE11=Ao Meu Lado
TTITLE12=Mais Uma Noite
TTITLE13=Ponto Final
TTITLE14=Pra Sempre
TTITLE15=Machuca de Jeito
TTITLE16=Toma Conta de Mim (Remix)
EXTD=YEAR: 2002
EXTT0=
EXTT1=
EXTT2=
EXTT3=
EXTT4=
EXTT5=
EXTT6=
EXTT7=
EXTT8=
EXTT9=
EXTT10=
EXTT11=
EXTT12=
EXTT13=
EXTT14=
EXTT15=
EXTT16=
PLAYORDER=
